# xmcd
#
# Track frame offsets:
#	150
#	21439
#	35615
#	52279
#	69030
#	90579
#	106229
#	122978
#	135565
#	153624
#	171431
#	188645
#	207269
#	224149
#
# Disc length: 3173 seconds
#
# Revision: 1
# Processed by: cddbd v1.5.2PL0 Copyright (c) Steve Scherf et al.
# Submitted via: audiograbber 1.83.01
#
DISCID=d30c630e
DTITLE=Doug Jay and The Blues Jays - Under The Radar
DYEAR=2007
DGENRE=Blues
TTITLE0=Under The Radar
TTITLE1=If It's Love
TTITLE2=Temptation
TTITLE3=Show Me The Way To Love You
TTITLE4=Without Love
TTITLE5=Don't Want Your Love No More
TTITLE6=Losing Hand
TTITLE7=Love Grows Cold
TTITLE8=Poor Me
TTITLE9=Nothin'
TTITLE10=It's Easy When You Know How
TTITLE11=What A Man Can Do
TTITLE12=Call Me Back To You
TTITLE13=Boom-A-Raang!
EXTD=
EXTT0=
EXTT1=
EXTT2=
EXTT3=
EXTT4=
EXTT5=
EXTT6=
EXTT7=
EXTT8=
EXTT9=
EXTT10=
EXTT11=
EXTT12=
EXTT13=
PLAYORDER=
